<svg xmlns="http://www.w3.org/2000/svg" width="400" height="400" viewBox="0 0 400 400">
  <defs>
    <linearGradient id="circuitGrad" x1="0%" y1="0%" x2="100%" y2="100%">
      <stop offset="0%" style="stop-color:#6366f1;stop-opacity:0.1"/>
      <stop offset="100%" style="stop-color:#0ea5e9;stop-opacity:0.05"/>
    </linearGradient>
  </defs>
  <rect width="400" height="400" fill="none"/>
  <g stroke="url(#circuitGrad)" stroke-width="1" fill="none">
    <!-- Horizontal lines -->
    <line x1="0" y1="50" x2="150" y2="50"/>
    <line x1="180" y1="50" x2="400" y2="50"/>
    <line x1="0" y1="150" x2="100" y2="150"/>
    <line x1="130" y1="150" x2="270" y2="150"/>
    <line x1="300" y1="150" x2="400" y2="150"/>
    <line x1="0" y1="250" x2="200" y2="250"/>
    <line x1="230" y1="250" x2="400" y2="250"/>
    <line x1="0" y1="350" x2="120" y2="350"/>
    <line x1="150" y1="350" x2="400" y2="350"/>
    <!-- Vertical lines -->
    <line x1="50" y1="0" x2="50" y2="120"/>
    <line x1="50" y1="150" x2="50" y2="400"/>
    <line x1="150" y1="0" x2="150" y2="80"/>
    <line x1="150" y1="110" x2="150" y2="200"/>
    <line x1="150" y1="230" x2="150" y2="400"/>
    <line x1="250" y1="0" x2="250" y2="160"/>
    <line x1="250" y1="190" x2="250" y2="300"/>
    <line x1="250" y1="330" x2="250" y2="400"/>
    <line x1="350" y1="0" x2="350" y2="100"/>
    <line x1="350" y1="130" x2="350" y2="400"/>
    <!-- Diagonal lines -->
    <line x1="50" y1="50" x2="150" y2="150"/>
    <line x1="250" y1="50" x2="350" y2="150"/>
    <line x1="50" y1="250" x2="150" y2="350"/>
    <line x1="250" y1="250" x2="350" y2="350"/>
    <!-- Circles -->
    <circle cx="50" cy="50" r="8"/>
    <circle cx="150" cy="50" r="5"/>
    <circle cx="250" cy="50" r="8"/>
    <circle cx="350" cy="50" r="5"/>
    <circle cx="50" cy="150" r="5"/>
    <circle cx="150" cy="150" r="10"/>
    <circle cx="250" cy="150" r="5"/>
    <circle cx="350" cy="150" r="8"/>
    <circle cx="50" cy="250" r="8"/>
    <circle cx="150" cy="250" r="5"/>
    <circle cx="250" cy="250" r="10"/>
    <circle cx="350" cy="250" r="5"/>
    <circle cx="50" cy="350" r="5"/>
    <circle cx="150" cy="350" r="8"/>
    <circle cx="250" cy="350" r="5"/>
    <circle cx="350" cy="350" r="8"/>
    <!-- Squares -->
    <rect x="95" y="95" width="10" height="10"/>
    <rect x="195" y="95" width="10" height="10"/>
    <rect x="295" y="95" width="10" height="10"/>
    <rect x="95" y="195" width="10" height="10"/>
    <rect x="195" y="195" width="10" height="10"/>
    <rect x="295" y="195" width="10" height="10"/>
    <rect x="95" y="295" width="10" height="10"/>
    <rect x="195" y="295" width="10" height="10"/>
    <rect x="295" y="295" width="10" height="10"/>
  </g>
</svg>
