<svg xmlns="http://www.w3.org/2000/svg" width="800" height="800" viewBox="0 0 800 800">
  <defs>
    <linearGradient id="cg1" x1="0%" y1="0%" x2="100%" y2="100%">
      <stop offset="0%" stop-color="#6366f1" stop-opacity="0.6"/>
      <stop offset="100%" stop-color="#0ea5e9" stop-opacity="0.3"/>
    </linearGradient>
    <filter id="glow"><feGaussianBlur stdDeviation="2" result="blur"/><feMerge><feMergeNode in="blur"/><feMergeNode in="SourceGraphic"/></feMerge></filter>
  </defs>
  <rect width="800" height="800" fill="none"/>
  <g stroke="url(#cg1)" stroke-width="1.5" fill="none" filter="url(#glow)">
    <line x1="0" y1="100" x2="300" y2="100"/><line x1="350" y1="100" x2="800" y2="100"/>
    <line x1="0" y1="300" x2="200" y2="300"/><line x1="260" y1="300" x2="540" y2="300"/><line x1="600" y1="300" x2="800" y2="300"/>
    <line x1="0" y1="500" x2="400" y2="500"/><line x1="460" y1="500" x2="800" y2="500"/>
    <line x1="0" y1="700" x2="240" y2="700"/><line x1="300" y1="700" x2="800" y2="700"/>
    <line x1="100" y1="0" x2="100" y2="240"/><line x1="100" y1="300" x2="100" y2="800"/>
    <line x1="300" y1="0" x2="300" y2="160"/><line x1="300" y1="220" x2="300" y2="400"/><line x1="300" y1="460" x2="300" y2="800"/>
    <line x1="500" y1="0" x2="500" y2="320"/><line x1="500" y1="380" x2="500" y2="600"/><line x1="500" y1="660" x2="500" y2="800"/>
    <line x1="700" y1="0" x2="700" y2="200"/><line x1="700" y1="260" x2="700" y2="800"/>
    <line x1="100" y1="100" x2="300" y2="300"/><line x1="500" y1="100" x2="700" y2="300"/>
    <line x1="100" y1="500" x2="300" y2="700"/><line x1="500" y1="500" x2="700" y2="700"/>
    <circle cx="100" cy="100" r="10"/><circle cx="300" cy="100" r="6"/><circle cx="500" cy="100" r="10"/><circle cx="700" cy="100" r="6"/>
    <circle cx="100" cy="300" r="6"/><circle cx="300" cy="300" r="12"/><circle cx="500" cy="300" r="6"/><circle cx="700" cy="300" r="10"/>
    <circle cx="100" cy="500" r="10"/><circle cx="300" cy="500" r="6"/><circle cx="500" cy="500" r="12"/><circle cx="700" cy="500" r="6"/>
    <circle cx="100" cy="700" r="6"/><circle cx="300" cy="700" r="10"/><circle cx="500" cy="700" r="6"/><circle cx="700" cy="700" r="10"/>
    <rect x="190" y="190" width="20" height="20" rx="3"/><rect x="390" y="190" width="20" height="20" rx="3"/>
    <rect x="590" y="190" width="20" height="20" rx="3"/><rect x="190" y="390" width="20" height="20" rx="3"/>
    <rect x="390" y="390" width="20" height="20" rx="3"/><rect x="590" y="390" width="20" height="20" rx="3"/>
    <rect x="190" y="590" width="20" height="20" rx="3"/><rect x="390" y="590" width="20" height="20" rx="3"/>
    <rect x="590" y="590" width="20" height="20" rx="3"/>
  </g>
</svg>
