<svg xmlns="http://www.w3.org/2000/svg" width="200" height="200" viewBox="0 0 200 200">
  <defs>
    <linearGradient id="gg1" x1="0%" y1="0%" x2="100%" y2="100%">
      <stop offset="0%" stop-color="#6366f1" stop-opacity="0.4"/>
      <stop offset="100%" stop-color="#0ea5e9" stop-opacity="0.2"/>
    </linearGradient>
    <filter id="gglow"><feGaussianBlur stdDeviation="1" result="blur"/><feMerge><feMergeNode in="blur"/><feMergeNode in="SourceGraphic"/></feMerge></filter>
  </defs>
  <g stroke="url(#gg1)" stroke-width="1" fill="none" filter="url(#gglow)">
    <line x1="0" y1="0" x2="200" y2="0"/><line x1="0" y1="50" x2="200" y2="50"/>
    <line x1="0" y1="100" x2="200" y2="100"/><line x1="0" y1="150" x2="200" y2="150"/>
    <line x1="0" y1="200" x2="200" y2="200"/>
    <line x1="0" y1="0" x2="0" y2="200"/><line x1="50" y1="0" x2="50" y2="200"/>
    <line x1="100" y1="0" x2="100" y2="200"/><line x1="150" y1="0" x2="150" y2="200"/>
    <line x1="200" y1="0" x2="200" y2="200"/>
    <circle cx="0" cy="0" r="3" fill="url(#gg1)"/><circle cx="50" cy="0" r="3" fill="url(#gg1)"/>
    <circle cx="100" cy="0" r="3" fill="url(#gg1)"/><circle cx="150" cy="0" r="3" fill="url(#gg1)"/>
    <circle cx="200" cy="0" r="3" fill="url(#gg1)"/><circle cx="0" cy="50" r="3" fill="url(#gg1)"/>
    <circle cx="50" cy="50" r="3" fill="url(#gg1)"/><circle cx="100" cy="50" r="3" fill="url(#gg1)"/>
    <circle cx="150" cy="50" r="3" fill="url(#gg1)"/><circle cx="200" cy="50" r="3" fill="url(#gg1)"/>
    <circle cx="0" cy="100" r="3" fill="url(#gg1)"/><circle cx="50" cy="100" r="3" fill="url(#gg1)"/>
    <circle cx="100" cy="100" r="4" fill="url(#gg1)"/><circle cx="150" cy="100" r="3" fill="url(#gg1)"/>
    <circle cx="200" cy="100" r="3" fill="url(#gg1)"/><circle cx="0" cy="150" r="3" fill="url(#gg1)"/>
    <circle cx="50" cy="150" r="3" fill="url(#gg1)"/><circle cx="100" cy="150" r="3" fill="url(#gg1)"/>
    <circle cx="150" cy="150" r="3" fill="url(#gg1)"/><circle cx="200" cy="150" r="3" fill="url(#gg1)"/>
    <circle cx="0" cy="200" r="3" fill="url(#gg1)"/><circle cx="50" cy="200" r="3" fill="url(#gg1)"/>
    <circle cx="100" cy="200" r="3" fill="url(#gg1)"/><circle cx="150" cy="200" r="3" fill="url(#gg1)"/>
    <circle cx="200" cy="200" r="3" fill="url(#gg1)"/>
  </g>
</svg>
