<svg xmlns="http://www.w3.org/2000/svg" width="300" height="260" viewBox="0 0 300 260">
  <defs>
    <linearGradient id="hg1" x1="0%" y1="0%" x2="100%" y2="100%">
      <stop offset="0%" stop-color="#6366f1" stop-opacity="0.5"/>
      <stop offset="100%" stop-color="#0ea5e9" stop-opacity="0.25"/>
    </linearGradient>
    <filter id="hglow"><feGaussianBlur stdDeviation="1.5" result="blur"/><feMerge><feMergeNode in="blur"/><feMergeNode in="SourceGraphic"/></feMerge></filter>
  </defs>
  <g stroke="url(#hg1)" stroke-width="1.5" fill="none" filter="url(#hglow)">
    <polygon points="150,10 280,75 280,185 150,250 20,185 20,75"/>
    <polygon points="150,40 255,92 255,168 150,220 45,168 45,92"/>
    <polygon points="150,70 230,109 230,151 150,190 70,151 70,109"/>
    <circle cx="150" cy="130" r="5" fill="url(#hg1)"/>
    <circle cx="150" cy="10" r="3" fill="url(#hg1)"/><circle cx="280" cy="75" r="3" fill="url(#hg1)"/>
    <circle cx="280" cy="185" r="3" fill="url(#hg1)"/><circle cx="150" cy="250" r="3" fill="url(#hg1)"/>
    <circle cx="20" cy="185" r="3" fill="url(#hg1)"/><circle cx="20" cy="75" r="3" fill="url(#hg1)"/>
    <line x1="150" y1="10" x2="150" y2="40"/><line x1="280" y1="75" x2="255" y2="92"/>
    <line x1="280" y1="185" x2="255" y2="168"/><line x1="150" y1="250" x2="150" y2="220"/>
    <line x1="20" y1="185" x2="45" y2="168"/><line x1="20" y1="75" x2="45" y2="92"/>
  </g>
</svg>
