<svg xmlns="http://www.w3.org/2000/svg" width="600" height="600" viewBox="0 0 600 600">
  <defs>
    <radialGradient id="pg1" cx="50%" cy="50%" r="50%">
      <stop offset="0%" stop-color="#6366f1" stop-opacity="0.8"/>
      <stop offset="100%" stop-color="#6366f1" stop-opacity="0"/>
    </radialGradient>
    <radialGradient id="pg2" cx="50%" cy="50%" r="50%">
      <stop offset="0%" stop-color="#0ea5e9" stop-opacity="0.8"/>
      <stop offset="100%" stop-color="#0ea5e9" stop-opacity="0"/>
    </radialGradient>
    <filter id="pglow"><feGaussianBlur stdDeviation="3" result="blur"/><feMerge><feMergeNode in="blur"/><feMergeNode in="SourceGraphic"/></feMerge></filter>
  </defs>
  <g filter="url(#pglow)">
    <circle cx="50" cy="80" r="4" fill="url(#pg1)"/><circle cx="150" cy="40" r="3" fill="url(#pg2)"/>
    <circle cx="250" cy="120" r="5" fill="url(#pg1)"/><circle cx="350" cy="60" r="3" fill="url(#pg2)"/>
    <circle cx="450" cy="100" r="4" fill="url(#pg1)"/><circle cx="550" cy="50" r="3" fill="url(#pg2)"/>
    <circle cx="100" cy="200" r="3" fill="url(#pg2)"/><circle cx="200" cy="180" r="4" fill="url(#pg1)"/>
    <circle cx="300" cy="220" r="3" fill="url(#pg2)"/><circle cx="400" cy="190" r="5" fill="url(#pg1)"/>
    <circle cx="500" cy="210" r="3" fill="url(#pg2)"/><circle cx="80" cy="320" r="4" fill="url(#pg1)"/>
    <circle cx="180" cy="300" r="3" fill="url(#pg2)"/><circle cx="280" cy="340" r="4" fill="url(#pg1)"/>
    <circle cx="380" cy="310" r="3" fill="url(#pg2)"/><circle cx="480" cy="330" r="5" fill="url(#pg1)"/>
    <circle cx="580" cy="290" r="3" fill="url(#pg2)"/><circle cx="120" cy="440" r="3" fill="url(#pg2)"/>
    <circle cx="220" cy="420" r="4" fill="url(#pg1)"/><circle cx="320" cy="460" r="3" fill="url(#pg2)"/>
    <circle cx="420" cy="430" r="4" fill="url(#pg1)"/><circle cx="520" cy="450" r="3" fill="url(#pg2)"/>
    <circle cx="60" cy="560" r="3" fill="url(#pg2)"/><circle cx="160" cy="540" r="4" fill="url(#pg1)"/>
    <circle cx="260" cy="580" r="3" fill="url(#pg2)"/><circle cx="360" cy="550" r="5" fill="url(#pg1)"/>
    <circle cx="460" cy="570" r="3" fill="url(#pg2)"/><circle cx="560" cy="530" r="4" fill="url(#pg1)"/>
    <line x1="50" y1="80" x2="150" y2="40" stroke="#6366f1" stroke-width="0.5" opacity="0.4"/>
    <line x1="150" y1="40" x2="250" y2="120" stroke="#0ea5e9" stroke-width="0.5" opacity="0.4"/>
    <line x1="250" y1="120" x2="350" y2="60" stroke="#6366f1" stroke-width="0.5" opacity="0.4"/>
    <line x1="350" y1="60" x2="450" y2="100" stroke="#0ea5e9" stroke-width="0.5" opacity="0.4"/>
    <line x1="450" y1="100" x2="550" y2="50" stroke="#6366f1" stroke-width="0.5" opacity="0.4"/>
    <line x1="100" y1="200" x2="200" y2="180" stroke="#0ea5e9" stroke-width="0.5" opacity="0.4"/>
    <line x1="200" y1="180" x2="300" y2="220" stroke="#6366f1" stroke-width="0.5" opacity="0.4"/>
    <line x1="300" y1="220" x2="400" y2="190" stroke="#0ea5e9" stroke-width="0.5" opacity="0.4"/>
    <line x1="400" y1="190" x2="500" y2="210" stroke="#6366f1" stroke-width="0.5" opacity="0.4"/>
    <line x1="80" y1="320" x2="180" y2="300" stroke="#6366f1" stroke-width="0.5" opacity="0.4"/>
    <line x1="180" y1="300" x2="280" y2="340" stroke="#0ea5e9" stroke-width="0.5" opacity="0.4"/>
    <line x1="280" y1="340" x2="380" y2="310" stroke="#6366f1" stroke-width="0.5" opacity="0.4"/>
    <line x1="380" y1="310" x2="480" y2="330" stroke="#0ea5e9" stroke-width="0.5" opacity="0.4"/>
    <line x1="480" y1="330" x2="580" y2="290" stroke="#6366f1" stroke-width="0.5" opacity="0.4"/>
  </g>
</svg>
