<svg xmlns="http://www.w3.org/2000/svg" width="1440" height="200" viewBox="0 0 1440 200">
  <defs>
    <linearGradient id="wg1" x1="0%" y1="0%" x2="100%" y2="0%">
      <stop offset="0%" stop-color="#6366f1" stop-opacity="0.8"/>
      <stop offset="50%" stop-color="#0ea5e9" stop-opacity="0.5"/>
      <stop offset="100%" stop-color="#6366f1" stop-opacity="0.8"/>
    </linearGradient>
    <linearGradient id="wg2" x1="0%" y1="0%" x2="100%" y2="0%">
      <stop offset="0%" stop-color="#0ea5e9" stop-opacity="0.5"/>
      <stop offset="50%" stop-color="#6366f1" stop-opacity="0.3"/>
      <stop offset="100%" stop-color="#0ea5e9" stop-opacity="0.5"/>
    </linearGradient>
    <filter id="wglow"><feGaussianBlur stdDeviation="2" result="blur"/><feMerge><feMergeNode in="blur"/><feMergeNode in="SourceGraphic"/></feMerge></filter>
  </defs>
  <path d="M0,100 C360,180 720,20 1080,100 C1260,140 1380,80 1440,100 L1440,200 L0,200 Z" fill="url(#wg1)" opacity="0.6" filter="url(#wglow)"/>
  <path d="M0,120 C240,60 480,180 720,120 C960,60 1200,180 1440,120 L1440,200 L0,200 Z" fill="url(#wg2)" opacity="0.4" filter="url(#wglow)"/>
  <path d="M0,80 C180,140 360,60 540,100 C720,140 900,60 1080,100 C1260,140 1380,80 1440,100" fill="none" stroke="url(#wg1)" stroke-width="2" opacity="0.8" filter="url(#wglow)"/>
</svg>
